<svg xml:space="preserve" viewBox="0 0 339.3627639155471 252.54" y="0" x="0" id="Layer_1" version="1.1" xmlns="http://www.w3.org/2000/svg" style="max-height: 500px" width="339.3627639155471" height="252.54"><style>.st0{opacity:.1;enable-background:new}.st0,.st2{fill:#C4DDF9}.st3{opacity:.1;fill:#C4DDF9;enable-background:new}</style><path d="M45.8-.5H.5v15.9l109.3 45.5 47.9 20 30-74.6 2.7-6.8z" class="st0"/><path d="M190.4-.5h6.9l-9.6 6.8-77.9 54.6L79 82.5.5 27.7V1.5l45.3-2z" class="st0"/><g opacity=".2"><circle r="2" cy="230" cx="2" class="st2"/><circle r="2" cy="240" cx="2" class="st2"/><circle r="2" cy="250" cx="2" class="st2"/><circle r="2" cy="260" cx="2" class="st2"/><circle r="2" cy="270" cx="2" class="st2"/><circle r="2" cy="280" cx="2" class="st2"/><circle r="2" cy="290" cx="2" class="st2"/><circle r="2" cy="300" cx="2" class="st2"/><circle r="2" cy="230" cx="9" class="st2"/><circle r="2" cy="240" cx="9" class="st2"/><circle r="2" cy="250" cx="9" class="st2"/><circle r="2" cy="260" cx="9" class="st2"/><circle r="2" cy="270" cx="9" class="st2"/><circle r="2" cy="280" cx="9" class="st2"/><circle r="2" cy="290" cx="9" class="st2"/><circle r="2" cy="300" cx="9" class="st2"/><circle r="2" cy="240" cx="16" class="st2"/><circle r="2" cy="250" cx="16" class="st2"/><circle r="2" cy="260" cx="16" class="st2"/><circle r="2" cy="270" cx="16" class="st2"/><circle r="2" cy="280" cx="16" class="st2"/><circle r="2" cy="290" cx="16" class="st2"/><circle r="2" cy="300" cx="16" class="st2"/><circle r="2" cy="240" cx="23" class="st2"/><circle r="2" cy="250" cx="23" class="st2"/><circle r="2" cy="260" cx="23" class="st2"/><circle r="2" cy="270" cx="23" class="st2"/><circle r="2" cy="280" cx="23" class="st2"/><circle r="2" cy="290" cx="23" class="st2"/><circle r="2" cy="300" cx="23" class="st2"/><circle r="2" cy="250" cx="30" class="st2"/><circle r="2" cy="260" cx="30" class="st2"/><circle r="2" cy="270" cx="30" class="st2"/><circle r="2" cy="280" cx="30" class="st2"/><circle r="2" cy="290" cx="30" class="st2"/><circle r="2" cy="300" cx="30" class="st2"/><circle r="2" cy="250" cx="37" class="st2"/><circle r="2" cy="260" cx="37" class="st2"/><circle r="2" cy="270" cx="37" class="st2"/><circle r="2" cy="280" cx="37" class="st2"/><circle r="2" cy="290" cx="37" class="st2"/><circle r="2" cy="300" cx="37" class="st2"/><circle r="2" cy="260" cx="44" class="st2"/><circle r="2" cy="270" cx="44" class="st2"/><circle r="2" cy="280" cx="44" class="st2"/><circle r="2" cy="290" cx="44" class="st2"/><circle r="2" cy="300" cx="44" class="st2"/><circle r="2" cy="260" cx="51" class="st2"/><circle r="2" cy="270" cx="51" class="st2"/><circle r="2" cy="280" cx="51" class="st2"/><circle r="2" cy="290" cx="51" class="st2"/><circle r="2" cy="300" cx="51" class="st2"/><circle r="2" cy="270" cx="58" class="st2"/><circle r="2" cy="280" cx="58" class="st2"/><circle r="2" cy="290" cx="58" class="st2"/><circle r="2" cy="300" cx="58" class="st2"/><circle r="2" cy="270" cx="65" class="st2"/><circle r="2" cy="280" cx="65" class="st2"/><circle r="2" cy="290" cx="65" class="st2"/><circle r="2" cy="300" cx="65" class="st2"/><circle r="2" cy="280" cx="72" class="st2"/><circle r="2" cy="290" cx="72" class="st2"/><circle r="2" cy="300" cx="72" class="st2"/><circle r="2" cy="280" cx="79" class="st2"/><circle r="2" cy="290" cx="79" class="st2"/><circle r="2" cy="300" cx="79" class="st2"/><circle r="2" cy="290" cx="86" class="st2"/><circle r="2" cy="300" cx="86" class="st2"/><circle r="2" cy="300" cx="93" class="st2"/><circle r="2" cy="300" cx="100" class="st2"/></g><path d="M317.5 258.3v46.2h-49l-1.9-6.9-6.6-24.7z" class="st3"/><path d="M317.5 279.1v25.4H250l-.2-.7 16.8-6.2z" class="st3"/></svg>